HIERARCHY
ROOT RootJoint
{
    OFFSET   0.000000   0.000000   0.000000
    CHANNELS 6 Xposition Yposition Zposition Xrotation Yrotation Zrotation
    JOINT pelvis_lowerback
    {
        OFFSET   0.000000   0.093605   0.000000
        CHANNELS 3 Xrotation Yrotation Zrotation
        JOINT lowerback_torso
        {
            OFFSET   0.000000   0.100000   0.000000
            CHANNELS 3 Xrotation Yrotation Zrotation
            JOINT torso_head
            {
                OFFSET   0.000000   0.282350   0.000000
                CHANNELS 3 Xrotation Yrotation Zrotation
                End Site
                {
                    OFFSET   0.000000   0.192650   0.000000
                }
            }
            JOINT rTorso_Clavicle
            {
                OFFSET  -0.001000   0.157500   0.000000
                CHANNELS 3 Xrotation Yrotation Zrotation
                JOINT rShoulder
                {
                    OFFSET  -0.117647   0.000000   0.000000
                    CHANNELS 3 Xrotation Yrotation Zrotation
                    JOINT rElbow
                    {
                        OFFSET  -0.245000   0.000000   0.000000
                        CHANNELS 3 Xrotation Yrotation Zrotation
                        JOINT rWrist
                        {
                            OFFSET  -0.240000   0.000000   0.000000
                            CHANNELS 3 Xrotation Yrotation Zrotation
                            End Site
                            {
                                OFFSET  -0.116353  -0.002500   0.000000
                            }
                        }
                    }
                }
            }
            JOINT lTorso_Clavicle
            {
                OFFSET   0.001000   0.157500   0.000000
                CHANNELS 3 Xrotation Yrotation Zrotation
                JOINT lShoulder
                {
                    OFFSET   0.117647   0.000000   0.000000
                    CHANNELS 3 Xrotation Yrotation Zrotation
                    JOINT lElbow
                    {
                        OFFSET   0.245000   0.000000   0.000000
                        CHANNELS 3 Xrotation Yrotation Zrotation
                        JOINT lWrist
                        {
                            OFFSET   0.240000   0.000000   0.000000
                            CHANNELS 3 Xrotation Yrotation Zrotation
                            End Site
                            {
                                OFFSET   0.116353  -0.002500   0.000000
                            }
                        }
                    }
                }
            }
        }
    }
    JOINT rHip
    {
        OFFSET  -0.100000  -0.051395   0.000000
        CHANNELS 3 Xrotation Yrotation Zrotation
        JOINT rKnee
        {
            OFFSET   0.000000  -0.410000   0.000000
            CHANNELS 3 Xrotation Yrotation Zrotation
            JOINT rAnkle
            {
                OFFSET   0.000000  -0.390000   0.000000
                CHANNELS 3 Xrotation Yrotation Zrotation
                JOINT rToeJoint
                {
                    OFFSET   0.000000  -0.050000   0.130000
                    CHANNELS 3 Xrotation Yrotation Zrotation
                    End Site
                    {
                        OFFSET  -0.010000   0.002000   0.060000
                    }
                }
            }
        }
    }
    JOINT lHip
    {
        OFFSET   0.100000  -0.051395   0.000000
        CHANNELS 3 Xrotation Yrotation Zrotation
        JOINT lKnee
        {
            OFFSET   0.000000  -0.410000   0.000000
            CHANNELS 3 Xrotation Yrotation Zrotation
            JOINT lAnkle
            {
                OFFSET   0.000000  -0.390000   0.000000
                CHANNELS 3 Xrotation Yrotation Zrotation
                JOINT lToeJoint
                {
                    OFFSET   0.000000  -0.050000   0.130000
                    CHANNELS 3 Xrotation Yrotation Zrotation
                    End Site
                    {
                        OFFSET   0.010000   0.002000   0.060000
                    }
                }
            }
        }
    }
}
MOTION
Frames: 17
Frame Time:   0.008333
 -2.387144   0.888349   4.818591  -4.761921  -3.298113  -0.059007   8.343893   3.971976   0.286567   2.258716  -0.527193   0.286769  -1.321134  -0.780959   2.041033   0.751850   3.809123   9.409003   5.207534  16.253141  43.902210  -0.000180  24.046573   0.000507   8.919972   3.101065  -0.962421   2.156695  -0.228639 -11.866361  12.382197 -12.482229 -49.596673  -0.001775 -14.745090  -0.000825   8.975503  -2.423561  -1.620734  19.724149   1.131236  -0.803578  10.006267   0.000358  -0.002856 -15.844277   4.954820  -0.508273 -13.993848  -0.000967   0.010026 -20.478642  -3.484173   3.046430  13.888858  -0.000153   0.008741  -8.041456   5.425594   0.061676  -2.322584   0.000159  -0.000439
 -2.385587   0.887602   4.826959  -4.673855  -3.519802  -0.051368   8.213654   3.981781   0.200124   2.265034  -0.492746   0.293207  -1.347039  -0.753938   2.095420   0.831856   3.740950   9.467356   5.237939  16.213286  44.006247  -0.000181  23.988936   0.000303   8.923322   3.165291  -1.023649   2.226230  -0.172678 -11.934717  12.548934 -12.543669 -49.606661  -0.001806 -14.525706  -0.001207   8.993471  -2.425519  -1.668518  19.949138   1.231706  -0.999469  10.384355   0.000575  -0.002684 -15.524357   4.857129  -0.447740 -15.563399  -0.001318   0.010471 -20.662053  -3.527320   2.889399  14.268479   0.000462   0.006021  -7.607819   5.346084   0.186064  -2.166644   0.000159  -0.000825
 -2.383852   0.887068   4.835648  -4.587939  -3.708697  -0.011353   8.055182   3.985666   0.093260   2.264265  -0.470350   0.292787  -1.375618  -0.726003   2.148249   0.942967   3.649318   9.530229   5.292765  16.156496  44.120543  -0.000196  23.922955   0.000124   8.926688   3.173182  -1.028743   2.302482  -0.111962 -11.997534  12.712381 -12.597255 -49.622464  -0.001784 -14.318539  -0.001399   9.014664  -2.422409  -1.746387  20.166152   1.372364  -1.238706  10.833274   0.000949  -0.002321 -15.017303   4.817707  -0.462060 -17.502257  -0.002281   0.008723 -20.781445  -3.553511   2.642282  14.762790   0.001353   0.003621  -7.190087   5.273578   0.301803  -1.982013   0.000235  -0.001174
 -2.382086   0.886547   4.844509  -4.481320  -3.859892   0.037374   7.876398   3.978989  -0.024963   2.245643  -0.460701   0.290036  -1.407922  -0.699852   2.196933   1.065498   3.547640   9.590870   5.357067  16.093966  44.237512  -0.000202  23.856877  -0.000018   8.929033   3.154502  -0.996585   2.377795  -0.050356 -12.040182  12.868973 -12.643641 -49.632783  -0.001703 -14.124807  -0.001470   9.034648  -2.419778  -1.828520  20.358867   1.524608  -1.494963  11.319547   0.001424  -0.001859 -14.383383   4.755831  -0.215804 -19.673630   0.001571   0.008368 -20.856458  -3.570520   2.359466  15.265187   0.002181   0.001807  -6.798103   5.205923   0.409682  -1.809934   0.000323  -0.001366
 -2.380249   0.886011   4.853485  -4.348354  -4.058407   0.079054   7.684234   3.991470  -0.137519   2.211276  -0.441110   0.282094  -1.442426  -0.674327   2.240186   1.183424   3.450226   9.645349   5.420218  16.033519  44.346835  -0.000193  23.793762  -0.000134   8.931559   3.126121  -0.951886   2.453735   0.014321 -12.075263  13.019691 -12.682519 -49.640519  -0.001599 -13.942603  -0.001512   9.053005  -2.413213  -1.904017  20.521919   1.609753  -1.736631  11.796321   0.001603  -0.001940 -13.756269   4.678594  -0.193737 -21.826322  -0.000022   0.009341 -20.881302  -3.578462   2.082458  15.751393   0.002846   0.000207  -6.431728   5.144019   0.510656  -1.652923   0.000410  -0.001535
 -2.378344   0.885388   4.862527  -4.186997  -4.299472   0.114517   7.486353   4.011967  -0.246142   2.163402  -0.415464   0.271470  -1.477835  -0.650193   2.279804   1.290779   3.360991   9.690720   5.477439  15.978674  44.447028  -0.000171  23.736073  -0.000227   8.934094   3.101652  -0.908659   2.527922   0.078777 -12.101119  13.163298 -12.715963 -49.645497  -0.001481 -13.771825  -0.001557   9.070196  -2.404237  -1.974274  20.655148   1.673462  -1.977881  12.255186   0.001642  -0.002233 -13.115026   4.587348  -0.145792 -23.967466  -0.001472   0.011627 -20.873178  -3.583236   1.812051  16.219332   0.003357  -0.001200  -6.089255   5.086676   0.605028  -1.508974   0.000488  -0.001683
 -2.376363   0.884621   4.871608  -3.998296  -4.562217   0.143597   7.287856   4.030884  -0.347364   2.105404  -0.390905   0.259824  -1.513030  -0.627892   2.316436   1.387238   3.278895   9.725400   5.528693  15.928703  44.536340  -0.000141  23.683671  -0.000297   8.936476   3.084179  -0.874717   2.596980   0.139399 -12.118872  13.297681 -12.746528 -49.647407  -0.001354 -13.612620  -0.001603   9.086604  -2.395877  -2.038277  20.765367   1.734240  -2.222949  12.692896   0.001643  -0.002536 -12.469045   4.507271  -0.134931 -26.082915  -0.003670   0.013272 -20.844815  -3.586783   1.544637  16.666613   0.003740  -0.002357  -5.769197   5.033324   0.693242  -1.376863   0.000555  -0.001788
 -2.374290   0.885059   4.880295  -3.909659  -4.696328   0.352668   7.244237   3.975093  -0.634931   2.108757  -0.379372   0.236152  -1.573681  -0.618168   2.355561   1.391590   3.221066   9.879860   5.592538  15.823362  44.662507  -0.000408  23.462405  -0.000645   8.929844   3.153469  -0.922795   2.608418   0.095204 -12.166185  13.452782 -12.918862 -49.633796  -0.001548 -13.367862  -0.002234   9.122192  -2.411073  -2.018866  20.556421   1.802101  -2.620388  13.878393   0.002945  -0.002372 -11.431898   4.393790   0.005938 -29.277991  -0.001582   0.014830 -20.868599  -3.698866   1.100178  17.478147   0.004400  -0.004680  -5.098787   4.971124   0.890728  -1.199420   0.000316  -0.002130
 -2.372203   0.885717   4.889156  -3.864271  -4.765561   0.539600   7.179992   3.908075  -0.877591   2.147370  -0.387326   0.213923  -1.616243  -0.607893   2.386029   1.430375   3.140188  10.015024   5.675717  15.710599  44.802799  -0.000659  23.248136  -0.000871   8.921932   3.184557  -0.894401   2.625459   0.056386 -12.202913  13.596629 -13.086615 -49.647758  -0.001641 -13.144557  -0.002547   9.161877  -2.452048  -2.061366  20.324988   1.874507  -2.979914  15.181624   0.004350  -0.001764 -10.226701   4.288361   0.179383 -32.473460   0.001337   0.015670 -20.751555  -3.763670   0.673141  18.146004   0.004736  -0.005404  -4.612260   4.933948   1.064717  -1.024685   0.000187  -0.002189
 -2.370120   0.886435   4.898154  -3.824851  -4.761555   0.700909   7.089448   3.825808  -1.084186   2.181655  -0.414177   0.203436  -1.655764  -0.598438   2.415136   1.492813   3.039222  10.136999   5.773530  15.588940  44.938649  -0.000844  23.040724  -0.001020   8.913826   3.182096  -0.826880   2.648580   0.027034 -12.234783  13.734898 -13.241026 -49.666997  -0.001642 -12.936443  -0.002622   9.199929  -2.502908  -2.127558  20.107309   1.943610  -3.290917  16.476783   0.005651  -0.000754  -9.041455   4.195597   0.349784 -34.875032   0.003156   0.014527 -20.581609  -3.816816   0.262656  18.734616   0.004909  -0.005336  -4.186420   4.902829   1.227751  -0.876757   0.000118  -0.002045
 -2.368039   0.887137   4.907240  -3.780051  -4.704528   0.846011   6.980096   3.738191  -1.268526   2.203551  -0.451631   0.200465  -1.695728  -0.589732   2.443312   1.567284   2.928651  10.247369   5.877730  15.464256  45.066710  -0.000959  22.841801  -0.001095   8.905431   3.153347  -0.743667   2.674084   0.003886 -12.259266  13.866942 -13.382719 -49.684383  -0.001576 -12.741768  -0.002540   9.236084  -2.553612  -2.197100  19.907814   2.011410  -3.567830  17.730093   0.006781   0.000408  -7.883758   4.115853   0.516613 -36.597977   0.004110   0.012511 -20.391429  -3.861295  -0.135947  19.277768   0.004996  -0.004899  -3.797341   4.876301   1.379266  -0.744492   0.000085  -0.001822
 -2.365959   0.887785   4.916369  -3.725479  -4.609913   0.981638   6.859139   3.651057  -1.438607   2.212838  -0.493607   0.200631  -1.736064  -0.581648   2.470004   1.645281   2.816517  10.347295   5.981980  15.341705  45.186040  -0.001016  22.653142  -0.001102   8.897017   3.109050  -0.656490   2.699112  -0.015768 -12.275850  13.991693 -13.513359 -49.697292  -0.001468 -12.559840  -0.002363   9.270453  -2.601864  -2.260809  19.725472   2.077580  -3.820912  18.930727   0.007709   0.001540  -6.757462   4.047235   0.679026 -37.750599   0.004370   0.010320 -20.195824  -3.898089  -0.526007  19.791856   0.005035  -0.004305  -3.434521   4.853720   1.519197  -0.624603   0.000076  -0.001577
 -2.363881   0.888359   4.925510  -3.658962  -4.487977   1.111850   6.732038   3.567649  -1.598861   2.211073  -0.536303   0.201164  -1.776108  -0.574114   2.494876   1.721386   2.707901  10.437891   6.082215  15.224648  45.296560  -0.001028  22.475824  -0.001052   8.888808   3.058458  -0.571561   2.721981  -0.033689 -12.285394  14.108496 -13.634503 -49.705220  -0.001340 -12.390116  -0.002134   9.303149  -2.648038  -2.315198  19.558297   2.141337  -4.056454  20.074451   0.008426   0.002546  -5.664957   3.987493   0.836316 -38.420879   0.004110   0.008308 -20.002640  -3.927927  -0.909368  20.285395   0.005044  -0.003661  -3.092289   4.834544   1.647982  -0.515329   0.000082  -0.001336
 -2.361859   0.889319   4.934219  -3.609377  -4.458893   1.235594   6.667450   3.481436  -1.795766   2.234310  -0.505046   0.215946  -1.810721  -0.537997   2.548568   1.709881   2.650452  10.503422   6.248023  15.147909  45.487370  -0.001445  22.171064  -0.000869   8.931079   3.111683  -0.549710   2.729723  -0.142263 -12.253877  14.248199 -13.849665 -49.710881  -0.001150 -12.320302  -0.001939   9.377064  -2.604928  -2.388893  18.749558   2.136403  -4.311091  22.298551   0.010104   0.000568  -4.288648   4.041884   1.222968 -39.956035   0.006974   0.010660 -19.660841  -3.989808  -1.277993  20.557308   0.004574  -0.003325  -3.029063   4.778631   1.892947  -0.354934  -0.000027  -0.001387
 -2.359922   0.890381   4.942988  -3.611517  -4.343289   1.339928   6.615374   3.349130  -1.981232   2.287134  -0.509710   0.241612  -1.831658  -0.503624   2.599590   1.721702   2.583467  10.572059   6.417910  15.069175  45.684912  -0.001779  21.880134  -0.000715   8.974485   3.136983  -0.471278   2.719897  -0.260217 -12.205576  14.365757 -14.063231 -49.710714  -0.000965 -12.264694  -0.001727   9.453507  -2.605916  -2.467957  17.913552   2.109506  -4.511832  24.650517   0.011696  -0.000355  -2.866737   4.091442   1.595768 -40.512581   0.006837   0.010010 -19.219094  -4.078207  -1.637487  20.740600   0.004030  -0.002817  -3.015870   4.717801   2.135672  -0.233552  -0.000082  -0.001283
 -2.358041   0.891414   4.951830  -3.625458  -4.164760   1.435164   6.550106   3.197108  -2.156242   2.338627  -0.542546   0.270555  -1.848680  -0.471907   2.646113   1.754530   2.501583  10.638926   6.592176  14.984377  45.878269  -0.001986  21.603093  -0.000605   9.015982   3.138520  -0.358891   2.702139  -0.376493 -12.146661  14.469883 -14.266741 -49.702885  -0.000797 -12.216706  -0.001514   9.526659  -2.631567  -2.533228  17.116154   2.083280  -4.682232  26.933835   0.013180  -0.000187  -1.444966   4.146748   1.953160 -40.120697   0.004502   0.007175 -18.751870  -4.162739  -1.986049  20.896757   0.003549  -0.002286  -3.017025   4.660674   2.363532  -0.128485  -0.000101  -0.001108
 -2.356200   0.892357   4.960701  -3.636686  -3.949949   1.529079   6.472455   3.039170  -2.325189   2.378843  -0.591463   0.297633  -1.866026  -0.442424   2.688439   1.799270   2.411939  10.700906   6.765589  14.896929  46.062256  -0.002074  21.340279  -0.000522   9.055446   3.120198  -0.231799   2.679212  -0.489255 -12.080959  14.563383 -14.458989 -49.688140  -0.000650 -12.174279  -0.001313   9.596195  -2.669793  -2.580969  16.365080   2.063246  -4.839087  29.098189   0.014451   0.000499  -0.046176   4.210465   2.293949 -38.962582   0.000906   0.003675 -18.288283  -4.237664  -2.326605  21.050479   0.003162  -0.001793  -3.018951   4.608507   2.574698  -0.034311  -0.000098  -0.000916
